<svg width="41" height="41" viewBox="0 0 41 41" fill="none" xmlns="http://www.w3.org/2000/svg">
<path d="M20.334 10.2173C19.3204 10.2173 18.3295 10.5179 17.4867 11.081C16.6439 11.6441 15.987 12.4446 15.5991 13.381C15.2112 14.3175 15.1097 15.348 15.3075 16.3421C15.5052 17.3363 15.9933 18.2495 16.7101 18.9662C17.4268 19.6829 18.34 20.1711 19.3341 20.3688C20.3283 20.5666 21.3588 20.4651 22.2952 20.0772C23.2317 19.6893 24.0321 19.0324 24.5953 18.1896C25.1584 17.3468 25.459 16.3559 25.459 15.3423C25.4574 13.9835 24.917 12.6809 23.9562 11.7201C22.9954 10.7593 21.6927 10.2188 20.334 10.2173ZM20.334 17.9048C19.8272 17.9048 19.3317 17.7545 18.9103 17.4729C18.4889 17.1914 18.1605 16.7911 17.9665 16.3229C17.7726 15.8547 17.7218 15.3394 17.8207 14.8424C17.9196 14.3453 18.1637 13.8887 18.522 13.5303C18.8804 13.172 19.337 12.9279 19.8341 12.829C20.3311 12.7301 20.8464 12.7809 21.3146 12.9748C21.7828 13.1688 22.1831 13.4972 22.4646 13.9186C22.7462 14.34 22.8965 14.8355 22.8965 15.3423C22.8957 16.0217 22.6255 16.673 22.1451 17.1534C21.6647 17.6338 21.0134 17.904 20.334 17.9048Z" fill="#441D06"/>
<path d="M30.182 5.48668C27.747 3.05234 24.4966 1.60624 21.0582 1.42749C17.6197 1.24873 14.2369 2.34999 11.5626 4.51872C8.88837 6.68745 7.11224 9.7699 6.57704 13.1712C6.04184 16.5724 6.7855 20.0514 8.6645 22.9366L18.3465 37.8001C18.562 38.1309 18.8566 38.4026 19.2036 38.5907C19.5506 38.7788 19.9391 38.8773 20.3338 38.8773C20.7286 38.8773 21.1171 38.7788 21.4641 38.5907C21.8111 38.4026 22.1057 38.1309 22.3212 37.8001L32.0035 22.9366C33.747 20.2601 34.5175 17.0657 34.1859 13.8888C33.8542 10.7118 32.4406 7.74535 30.182 5.48668ZM29.8565 21.5379L20.3339 36.1561L10.8112 21.5379C7.89639 17.0632 8.52156 11.0749 12.2977 7.29861C13.353 6.24327 14.6059 5.40612 15.9847 4.83497C17.3636 4.26382 18.8414 3.96986 20.3339 3.96986C21.8263 3.96986 23.3042 4.26382 24.683 4.83497C26.0619 5.40612 27.3147 6.24327 28.37 7.29861C32.1462 11.0749 32.7713 17.0632 29.8565 21.5379Z" fill="#441D06"/>
</svg>
