<svg width="27" height="27" viewBox="0 0 27 27" fill="none" xmlns="http://www.w3.org/2000/svg">
<path d="M18.75 3H8.25C7.85218 3 7.47064 3.15804 7.18934 3.43934C6.90804 3.72064 6.75 4.10218 6.75 4.5V22.5C6.75 22.8978 6.90804 23.2794 7.18934 23.5607C7.47064 23.842 7.85218 24 8.25 24H18.75C19.1478 24 19.5294 23.842 19.8107 23.5607C20.092 23.2794 20.25 22.8978 20.25 22.5V4.5C20.25 4.10218 20.092 3.72064 19.8107 3.43934C19.5294 3.15804 19.1478 3 18.75 3ZM8.25 4.5H18.75V18H8.25V4.5ZM8.25 22.5V19.5H18.75V22.5H8.25Z" fill="#441D06"/>
<path d="M12.75 20.25H14.25V21.75H12.75V20.25Z" fill="#441D06"/>
</svg>
