<svg width="368" height="97" viewBox="0 0 368 97" fill="none" xmlns="http://www.w3.org/2000/svg">
<path fill-rule="evenodd" clip-rule="evenodd" d="M364.737 22.1196L350.416 56.9308L335.732 22.1196H332.469L349.328 61.6449H351.503L368 22.1196H364.737Z" fill="white"/>
<path fill-rule="evenodd" clip-rule="evenodd" d="M238.384 25.2019C245.454 25.2019 249.08 27.9215 249.08 33.5421C249.08 36.0804 247.992 38.0748 245.998 39.7065C244.004 41.3383 241.647 42.0636 239.109 42.0636H232.402V25.3832C234.758 25.2019 236.752 25.2019 238.384 25.2019ZM232.22 45.1458H239.834L252.886 61.6449H256.693L242.916 44.6019C245.635 44.0579 247.811 42.7888 249.623 40.7944C251.436 38.8 252.343 36.443 252.343 33.7234C252.343 26.1084 247.811 22.4822 238.565 22.4822C238.203 22.4822 236.752 22.4822 234.215 22.4822C231.677 22.4822 230.045 22.4822 229.139 22.4822V61.6449H232.22V45.1458Z" fill="white"/>
<path fill-rule="evenodd" clip-rule="evenodd" d="M207.929 61.4636V58.5626H188.713V43.1514H205.754V40.2505H188.713V25.2019H207.385V22.301H185.631V61.4636H207.929Z" fill="white"/>
<path fill-rule="evenodd" clip-rule="evenodd" d="M150.1 25.2019V61.4636H153.182V25.2019H167.684V22.301H135.598V25.2019H150.1Z" fill="white"/>
<path fill-rule="evenodd" clip-rule="evenodd" d="M117.47 51.8542C117.47 54.2112 116.564 56.0243 114.751 57.2935C112.938 58.5626 110.763 59.2879 108.225 59.2879C104.418 59.2879 100.248 57.4748 98.0731 54.3925L96.2603 56.5682C97.1667 58.3813 98.7982 59.6505 101.155 60.7383C103.511 61.8262 105.868 62.1888 108.225 62.1888C111.669 62.1888 114.751 61.2822 117.108 59.2879C119.464 57.4748 120.733 54.9365 120.733 51.8542C120.733 38.2561 100.43 42.6075 100.43 31.729C100.43 27.5589 103.693 24.8393 108.769 24.8393C112.394 24.8393 115.295 25.9271 117.47 28.2841L119.102 25.9271C116.926 23.3888 112.938 21.9383 108.587 21.9383C105.143 21.9383 102.243 22.8449 100.248 24.658C98.2543 26.471 97.1667 28.828 97.1667 31.729C97.1667 44.6019 117.47 40.7944 117.47 51.8542Z" fill="white"/>
<path fill-rule="evenodd" clip-rule="evenodd" d="M78.132 61.4636V58.5626H58.9162V43.1514H75.7754V40.2505H58.9162V25.2019H77.5882V22.301H55.8345V61.4636H78.132Z" fill="white"/>
<path fill-rule="evenodd" clip-rule="evenodd" d="M32.0867 22.301H29.1862V56.2056L2.53793 22.301H0V61.4636H2.90049V27.7402L29.73 61.4636H32.0867V22.301Z" fill="white"/>
<path fill-rule="evenodd" clip-rule="evenodd" d="M296.394 21.757C310.353 21.757 321.592 32.9981 321.592 46.9589C321.592 60.9196 310.353 72.1608 296.394 72.1608H0V68.8972H284.067H296.394C308.54 68.8972 318.51 59.1065 318.51 46.7776C318.51 34.6299 308.721 24.658 296.394 24.658C284.248 24.658 274.278 34.4486 274.278 46.7776C274.278 52.2168 276.272 57.2935 279.716 61.2822H275.547C272.646 57.1122 271.015 52.2168 271.015 46.7776C271.015 33.1794 282.435 21.757 296.394 21.757Z" fill="white"/>
<path fill-rule="evenodd" clip-rule="evenodd" d="M366.368 69.0785H314.522C312.891 70.3477 311.259 71.4355 309.446 72.3421H366.187V69.0785H366.368Z" fill="white"/>
<path fill-rule="evenodd" clip-rule="evenodd" d="M9.24532 3.98879L6.52611 7.61495L9.4266 11.6037H11.0581L8.15764 7.61495L10.8768 3.98879H9.24532ZM6.16355 11.6037V3.98879H4.89458V11.785H6.16355V11.6037ZM0 11.6037H1.63153L4.53202 7.61495L1.81281 3.98879H0.181281L2.90049 7.79626L0 11.6037ZM18.4906 5.98318V11.785H19.9409V3.98879H18.4906L13.9586 9.60935V3.98879H12.6897V11.785H14.1399L18.4906 5.98318ZM29.0049 11.6037V3.98879H23.5665L23.3852 6.34579C23.2039 9.97196 22.1163 10.5159 21.5724 10.3346L21.7537 11.785C23.3852 11.785 24.4729 11.0598 24.8355 6.70841V5.43925H27.5547V11.785H29.0049V11.6037ZM32.0867 10.6972C32.8118 11.4224 33.8995 11.785 34.9872 11.785C36.2562 11.785 37.1626 11.4224 37.8877 10.6972C38.6128 9.97196 38.9754 8.88411 38.9754 7.79626C38.9754 6.70841 38.6128 5.62056 37.8877 4.89533C37.1626 4.17009 36.0749 3.80748 34.9872 3.80748C33.7182 3.80748 32.8118 4.17009 32.0867 4.89533C31.3616 5.62056 30.8177 6.70841 30.8177 7.79626C30.8177 8.88411 31.3616 9.97196 32.0867 10.6972ZM32.268 7.79626C32.268 7.07103 32.4493 6.34579 32.9931 5.80187C33.5369 5.25794 34.0808 5.07664 34.8059 5.07664C35.531 5.07664 36.2562 5.25794 36.6187 5.80187C37.1626 6.34579 37.3438 6.88972 37.3438 7.79626C37.3438 9.42804 36.2562 10.5159 34.6246 10.5159C33.8995 10.5159 33.1744 10.3346 32.6305 9.79065C32.6305 9.24673 32.268 8.5215 32.268 7.79626ZM46.9517 5.98318V11.785H48.402V3.98879H46.9517L42.4197 9.79065V3.98879H40.9695V11.785H42.4197L46.9517 5.98318ZM42.2384 0C42.2384 1.45047 43.1448 2.35701 44.7764 2.35701C46.2266 2.35701 47.3143 1.26916 47.3143 0H46.0453C46.0453 0.906542 45.5015 1.26916 44.7764 1.26916C44.0512 1.26916 43.5074 0.906542 43.5074 0H42.2384ZM59.6414 3.98879L56.3783 7.79626L59.8227 11.6037H61.6355L58.0099 7.61495L61.4542 3.98879H59.6414ZM56.0158 11.6037V3.98879H54.5655V11.785H56.0158V11.6037ZM63.4483 10.6972C64.1734 11.4224 65.2611 11.785 66.3488 11.785C67.6177 11.785 68.5241 11.4224 69.2493 10.6972C69.9744 9.97196 70.3369 8.88411 70.3369 7.79626C70.3369 6.70841 69.9744 5.62056 69.2493 4.89533C68.5241 4.17009 67.4365 3.80748 66.3488 3.80748C65.0798 3.80748 64.1734 4.17009 63.4483 4.89533C62.7232 5.62056 62.3606 6.5271 62.3606 7.79626C62.1793 8.88411 62.5419 9.97196 63.4483 10.6972ZM63.6296 7.79626C63.6296 7.07103 63.8108 6.34579 64.3547 5.80187C64.8985 5.25794 65.4424 5.07664 66.1675 5.07664C66.8926 5.07664 67.6177 5.25794 67.9803 5.80187C68.5241 6.34579 68.7054 6.88972 68.7054 7.79626C68.7054 9.42804 67.6177 10.5159 65.9862 10.5159C65.2611 10.5159 64.536 10.3346 63.9921 9.79065C63.9921 9.24673 63.6296 8.5215 63.6296 7.79626ZM73.7813 11.6037V5.98318L76.5005 9.60935L79.2197 5.98318V11.6037H80.67V3.98879H79.401L76.6818 7.79626L73.7813 3.98879H72.5123V11.785H73.7813V11.6037ZM90.0966 11.6037V3.98879H83.2079V11.785H84.6581V5.25794H88.8276V11.6037H90.0966ZM99.1606 11.6037V3.98879H93.7222L93.5409 6.34579C93.3596 9.97196 92.2719 10.5159 91.7281 10.3346L91.9094 11.6037C93.5409 11.6037 94.6286 10.8785 94.9911 6.5271V5.25794H97.8916V11.6037H99.1606ZM107.862 9.79065C107.318 10.3346 106.593 10.5159 105.505 10.5159C104.055 10.5159 102.967 9.60935 102.786 8.15888H108.768C108.768 7.97757 108.768 7.61495 108.768 7.25234C108.768 6.16449 108.406 5.43925 107.681 4.71402C106.956 4.17009 106.231 3.80748 105.143 3.80748C103.874 3.80748 102.967 4.17009 102.242 4.89533C101.517 5.62056 101.155 6.5271 101.155 7.79626C101.155 9.06542 101.517 9.97196 102.242 10.6972C102.967 11.4224 104.055 11.785 105.324 11.785C106.593 11.785 107.5 11.4224 108.225 10.6972L107.862 9.79065ZM105.143 5.07664C106.412 5.07664 107.318 5.80187 107.318 7.07103H102.605C102.786 5.98318 103.693 5.07664 105.143 5.07664ZM115.476 3.98879L112.213 7.79626L115.657 11.785H117.47L113.844 7.79626L117.289 4.17009H115.476V3.98879ZM112.032 11.6037V3.98879H110.581V11.785H112.032V11.6037ZM124.721 9.60935C124.177 10.3346 123.452 10.5159 122.546 10.5159C121.821 10.5159 121.096 10.3346 120.552 9.79065C120.008 9.24673 119.645 8.7028 119.645 7.79626C119.645 7.07103 119.827 6.34579 120.37 5.80187C120.914 5.25794 121.458 5.07664 122.183 5.07664C123.09 5.07664 123.815 5.43925 124.359 5.80187L125.084 4.71402C124.359 3.98878 123.452 3.62617 122.002 3.62617C120.914 3.62617 120.008 3.98878 119.283 4.71402C118.558 5.43925 118.195 6.5271 118.195 7.61495C118.195 8.88411 118.558 9.79065 119.283 10.5159C120.008 11.2411 121.096 11.6037 122.365 11.6037C123.633 11.6037 124.721 11.0598 125.265 10.3346L124.721 9.60935Z" fill="white"/>
<path fill-rule="evenodd" clip-rule="evenodd" d="M236.028 96.8187C236.209 96.8187 236.753 96.8187 237.297 96.8187C238.022 96.8187 238.384 96.8187 238.747 96.8187C241.104 96.8187 242.373 96.0935 242.373 94.643C242.373 93.7364 241.829 93.0112 240.56 92.8299C241.466 92.6486 242.191 91.9234 242.191 91.0168C242.191 89.7477 241.104 89.0224 238.928 89.0224C238.566 89.0224 238.022 89.0224 237.297 89.0224C236.753 89.0224 236.209 89.0224 236.028 89.0224V96.8187ZM239.11 93.3738C240.379 93.3738 240.922 93.7364 240.922 94.643C240.922 95.5495 240.197 95.9122 238.928 95.9122C238.747 95.9122 238.203 95.9122 237.297 95.9122V93.5551H239.11V93.3738ZM238.928 90.1103C240.197 90.1103 240.741 90.4729 240.741 91.1981C240.741 91.9234 240.197 92.4673 239.11 92.4673H237.297V90.1103C238.203 90.1103 238.566 90.1103 238.928 90.1103ZM247.086 96.8187C248.174 96.8187 249.08 96.6374 249.443 96.0935C249.986 95.5495 250.168 94.8243 250.168 94.0991C250.168 92.4673 249.261 91.3794 247.086 91.3794H245.817V89.0224H244.367V96.8187H247.086ZM253.068 96.8187V89.0224H251.618V96.8187H253.068ZM246.905 92.6486C248.174 92.6486 248.717 93.1925 248.717 94.0991C248.717 95.0056 248.174 95.5495 246.905 95.5495H245.998V92.6486H246.905ZM261.407 94.643C260.863 95.3682 260.138 95.5495 259.232 95.5495C258.507 95.5495 257.782 95.3682 257.238 94.8243C256.694 94.2804 256.513 93.7364 256.513 92.8299C256.513 92.1047 256.694 91.3794 257.238 90.8355C257.782 90.2916 258.325 90.1103 259.05 90.1103C259.957 90.1103 260.682 90.4729 261.226 90.8355L261.77 89.7477C261.045 89.0224 260.138 88.6598 258.688 88.6598C257.6 88.6598 256.694 89.0224 255.969 89.7477C255.244 90.4729 254.881 91.5607 254.881 92.6486C254.881 93.9178 255.244 94.8243 255.969 95.5495C256.694 96.2748 257.782 96.6374 259.05 96.6374C260.319 96.6374 261.407 96.0935 261.951 95.3682L261.407 94.643ZM273.734 96.8187V89.0224H272.284V95.3682H269.384V89.0224H267.933V95.3682H265.033V89.0224H263.583V96.8187H273.734ZM281.892 91.0168V96.8187H283.342V89.0224H281.892L277.36 94.8243V89.0224H275.91V96.8187H277.36L281.892 91.0168ZM291.681 91.0168V96.8187H293.131V89.0224H291.681L287.149 94.8243V89.0224H285.699V96.8187H287.149L291.681 91.0168ZM286.968 85.2149C286.968 86.6654 287.874 87.572 289.506 87.572C290.956 87.572 292.044 86.4841 292.044 85.2149H290.775C290.775 86.1215 290.231 86.4841 289.506 86.4841C288.781 86.4841 288.237 86.1215 288.237 85.2149H286.968ZM306.365 96.8187V89.0224H299.476V96.8187H300.926V90.4729H305.096V96.8187H306.365ZM314.704 91.0168V96.8187H316.154V89.0224H314.704L310.172 94.8243V89.0224H308.721V96.8187H310.172L314.704 91.0168ZM325.037 96.8187V89.0224H319.598L319.417 91.3794C319.236 95.0056 318.148 95.5495 317.604 95.3682L317.785 96.6374C319.417 96.6374 320.505 95.9121 320.867 91.5607V90.2916H323.586V96.6374H325.037V96.8187ZM328.118 95.9122C328.844 96.6374 329.931 97 331.019 97C332.288 97 333.194 96.6374 333.919 95.9122C334.645 95.1869 335.007 94.0991 335.007 93.0112C335.007 91.9234 334.645 90.8355 333.919 90.1103C333.194 89.385 332.107 89.0224 331.019 89.0224C329.75 89.0224 328.844 89.385 328.118 90.1103C327.393 90.8355 327.031 91.7421 327.031 93.0112C327.031 94.0991 327.393 95.0056 328.118 95.9122ZM328.481 93.0112C328.481 92.286 328.662 91.5607 329.206 91.0168C329.75 90.4729 330.294 90.2916 331.019 90.2916C331.744 90.2916 332.469 90.4729 332.832 91.0168C333.376 91.5607 333.557 92.1047 333.557 93.0112C333.557 94.643 332.469 95.7308 330.838 95.7308C330.113 95.7308 329.387 95.5495 328.844 95.0056C328.844 94.4617 328.481 93.7364 328.481 93.0112ZM338.814 90.4729V96.8187H340.264V90.4729H343.165V89.0224H336.095V90.4729H338.814ZM344.978 90.6542C345.703 90.2916 346.428 90.1103 347.153 90.1103C348.603 90.1103 348.966 90.8355 348.966 92.4673C348.422 92.1047 347.878 91.9234 346.972 91.9234C345.34 91.9234 344.071 92.8299 344.071 94.4617C344.071 95.9121 344.978 96.8187 346.428 96.8187C347.516 96.8187 348.241 96.4561 348.966 95.7308V96.6374H350.235V91.9234C350.235 89.7477 349.328 88.8411 347.334 88.8411C346.428 88.8411 345.521 89.0224 344.796 89.5664L344.978 90.6542ZM346.79 95.7308C345.884 95.7308 345.34 95.1869 345.34 94.4617C345.34 93.5551 346.065 93.1925 346.972 93.1925C347.697 93.1925 348.241 93.3738 348.784 93.7364V94.643C348.241 95.3682 347.516 95.7308 346.79 95.7308ZM360.568 89.0224L357.849 92.8299L360.749 96.8187H362.381L359.299 92.8299L362.018 89.0224H360.568ZM357.667 96.8187V89.0224H356.217V96.8187H357.667ZM351.322 96.8187H352.954L355.854 92.8299L353.135 89.0224H351.504L354.223 92.8299L351.322 96.8187ZM366.187 93.0112V84.671H364.737V93.0112H366.187ZM364.556 95.9122C364.556 96.4561 364.919 96.8187 365.462 96.8187C366.006 96.8187 366.369 96.4561 366.369 95.9122C366.369 95.3682 366.006 95.0056 365.462 95.0056C364.919 95.0056 364.556 95.3682 364.556 95.9122Z" fill="white"/>
</svg>
