<svg width="223" height="152" viewBox="0 0 223 152" fill="none" xmlns="http://www.w3.org/2000/svg">
<path d="M63.8528 144.391C47.1743 136.307 34.0246 122.407 26.8777 105.306C19.7307 88.2055 19.0791 69.0825 25.0455 51.5348C31.0118 33.9872 43.1848 19.2246 59.2744 10.0244C75.3639 0.82423 94.2609 -2.17937 112.41 1.5787C130.559 5.33677 146.71 15.5975 157.823 30.4304C168.936 45.2633 174.246 63.6459 172.753 82.12C171.261 100.594 163.069 117.886 149.719 130.742C136.369 143.599 118.781 151.134 100.263 151.93L100.16 149.512C118.087 148.742 135.115 141.447 148.04 129C160.965 116.552 168.896 99.8109 170.341 81.9251C171.786 64.0393 166.646 46.2419 155.886 31.8812C145.127 17.5206 129.491 7.5866 111.919 3.94818C94.3481 0.309766 76.0528 3.21773 60.4755 12.125C44.8982 21.0323 33.1128 35.3248 27.3364 52.3138C21.56 69.3027 22.1909 87.8169 29.1103 104.373C36.0297 120.93 48.7607 134.387 64.9081 142.213L63.8528 144.391Z" fill="#441D06"/>
<line x1="8" y1="150.75" x2="101" y2="150.75" stroke="#441D06" stroke-width="2.5"/>
<line x1="129" y1="150.75" x2="199" y2="150.75" stroke="#441D06" stroke-width="2.5"/>
<g clip-path="url(#clip0_309_2645)">
<path d="M75.351 100.863C75.3679 100.874 75.3905 100.869 75.4074 100.88C75.5404 100.954 75.6891 100.995 75.8412 101C75.925 101 76.0084 100.988 76.0891 100.966L96.4997 95.405L116.91 100.966C116.991 100.988 117.075 101 117.158 101C117.31 100.995 117.458 100.954 117.59 100.878C117.609 100.869 117.63 100.873 117.647 100.861L134.549 90.5488C134.724 90.4417 134.858 90.2807 134.933 90.0902C135.008 89.8996 135.018 89.69 134.962 89.4931L125.602 56.6806C125.564 56.544 125.495 56.4178 125.4 56.3117C125.306 56.2055 125.189 56.1222 125.057 56.068C124.926 56.0138 124.784 55.9902 124.642 55.9989C124.5 56.0075 124.362 56.0483 124.239 56.1181L114.92 61.3381C114.716 61.4668 114.569 61.6688 114.51 61.9024C114.451 62.136 114.484 62.3834 114.602 62.5933C114.72 62.8033 114.915 62.9598 115.146 63.0305C115.377 63.1012 115.626 63.0806 115.842 62.9731L124.122 58.3325L132.962 89.3188L117.909 98.5044L114.334 69.9463C114.303 69.6994 114.175 69.4748 113.978 69.322C113.782 69.1692 113.532 69.1007 113.285 69.1316C113.037 69.1624 112.813 69.29 112.66 69.4864C112.507 69.6828 112.438 69.9319 112.469 70.1788L116.05 98.7894L97.4388 93.7175V88.5988C97.4388 88.3501 97.3398 88.1117 97.1637 87.9358C96.9876 87.76 96.7488 87.6613 96.4997 87.6613C96.2507 87.6613 96.0119 87.76 95.8358 87.9358C95.6596 88.1117 95.5607 88.3501 95.5607 88.5988V93.7175L76.9474 98.7894L80.5288 70.1788C80.5441 70.0565 80.5351 69.9324 80.5024 69.8137C80.4697 69.6949 80.4138 69.5837 80.338 69.4864C80.2623 69.3892 80.1681 69.3078 80.0608 69.2469C79.9535 69.186 79.8353 69.1468 79.7128 69.1316C79.5903 69.1163 79.4661 69.1253 79.3471 69.1579C79.2281 69.1906 79.1168 69.2464 79.0194 69.322C78.922 69.3977 78.8404 69.4917 78.7794 69.5988C78.7185 69.706 78.6792 69.824 78.6639 69.9463L75.09 98.5044L60.0374 89.3206L68.8774 58.3363L77.1577 62.9769C77.3737 63.0844 77.6228 63.1049 77.8536 63.0342C78.0843 62.9636 78.279 62.8071 78.3974 62.5971C78.5158 62.3871 78.5489 62.1398 78.4898 61.9061C78.4307 61.6725 78.2839 61.4705 78.0798 61.3419L68.7591 56.12C68.6356 56.0494 68.4976 56.008 68.3556 55.999C68.2137 55.9899 68.0715 56.0134 67.9401 56.0677C67.8086 56.122 67.6914 56.2057 67.5973 56.3123C67.5033 56.4188 67.4349 56.5455 67.3975 56.6825L58.0373 89.495C57.9807 89.6918 57.9905 89.9018 58.0651 90.0926C58.1398 90.2833 58.2752 90.4443 58.4505 90.5506L75.351 100.863Z" fill="#441D06"/>
<path d="M95.8634 84.815C96.0358 84.9739 96.2615 85.0626 96.4961 85.0636C96.7307 85.0647 96.9573 84.978 97.1311 84.8206C97.7565 84.2525 112.463 70.7787 112.463 56.9375C112.463 47.9994 105.453 41 96.5 41C87.5474 41 80.5366 47.9994 80.5366 56.9375C80.5366 70.5387 95.238 84.2375 95.8634 84.815ZM96.5 42.875C104.529 42.875 110.585 48.92 110.585 56.9375C110.585 68.3694 99.3303 80.0694 96.5057 82.8256C93.6867 80.0375 82.4147 68.1837 82.4147 56.9375C82.4147 48.92 88.4714 42.875 96.5 42.875Z" fill="#441D06"/>
<path d="M104.951 56.9375C104.951 52.2856 101.159 48.5 96.5 48.5C91.8406 48.5 88.0488 52.2856 88.0488 56.9375C88.0488 61.5894 91.8406 65.375 96.5 65.375C101.159 65.375 104.951 61.5894 104.951 56.9375ZM96.5 63.5C92.8754 63.5 89.9269 60.5562 89.9269 56.9375C89.9269 53.3187 92.8754 50.375 96.5 50.375C100.125 50.375 103.073 53.3187 103.073 56.9375C103.073 60.5562 100.125 63.5 96.5 63.5Z" fill="#441D06"/>
</g>
<defs>
<clipPath id="clip0_309_2645">
<rect width="77" height="60" fill="white" transform="translate(58 41)"/>
</clipPath>
</defs>
</svg>
