<svg width="223" height="152" viewBox="0 0 223 152" fill="none" xmlns="http://www.w3.org/2000/svg">
<path d="M63.8528 144.391C47.1743 136.307 34.0246 122.407 26.8777 105.306C19.7307 88.2055 19.0791 69.0825 25.0455 51.5348C31.0118 33.9872 43.1848 19.2246 59.2744 10.0244C75.3639 0.82423 94.2609 -2.17937 112.41 1.5787C130.559 5.33677 146.71 15.5975 157.823 30.4304C168.936 45.2633 174.246 63.6459 172.753 82.12C171.261 100.594 163.069 117.886 149.719 130.742C136.369 143.599 118.781 151.134 100.263 151.93L100.16 149.512C118.087 148.742 135.115 141.447 148.04 129C160.965 116.552 168.896 99.8109 170.341 81.9251C171.786 64.0393 166.646 46.2419 155.886 31.8812C145.127 17.5206 129.491 7.5866 111.919 3.94818C94.3481 0.309766 76.0528 3.21773 60.4755 12.125C44.8982 21.0323 33.1128 35.3248 27.3364 52.3138C21.56 69.3027 22.1909 87.8169 29.1103 104.373C36.0297 120.93 48.7607 134.387 64.9081 142.213L63.8528 144.391Z" fill="#441D06"/>
<line x1="8" y1="150.75" x2="101" y2="150.75" stroke="#441D06" stroke-width="2.5"/>
<line x1="129" y1="150.75" x2="199" y2="150.75" stroke="#441D06" stroke-width="2.5"/>
<path fill-rule="evenodd" clip-rule="evenodd" d="M71.7002 100.444C71.7002 100.031 71.7002 100 72 100C72.5 100 73.0873 100 73.5 100L120 100C120.413 100 120.5 100 121 100C121.5 100 121.5 100.031 121.5 100.444C121.5 100.857 121.336 101.252 121.044 101.544C120.753 101.836 120.357 102 119.944 102H73.2564C72.8437 102 72.4479 101.836 72.156 101.544C71.8642 101.252 71.7002 100.857 71.7002 100.444Z" fill="#441D06"/>
<path fill-rule="evenodd" clip-rule="evenodd" d="M77 67V100H86.5V67H77ZM76.3688 64.6499C75.956 64.6499 75.5602 64.8139 75.2683 65.1057C74.9765 65.3976 74.8125 65.7934 74.8125 66.2062V100.444C74.8125 100.856 74.9765 101.252 75.2683 101.544C75.5602 101.836 75.956 102 76.3688 102H87.2625C87.6752 102 88.0711 101.836 88.3629 101.544C88.6548 101.252 88.8188 100.856 88.8188 100.444V66.2062C88.8188 65.7934 88.6548 65.3976 88.3629 65.1057C88.0711 64.8139 87.6752 64.6499 87.2625 64.6499H76.3688Z" fill="#441D06"/>
<path fill-rule="evenodd" clip-rule="evenodd" d="M86.5 39.75L111.4 49.0875V70.875H109V50.5L89 43V99.9093H102C102 100.322 102.226 99.6961 102.518 99.9879C102.81 100.28 103.206 100.444 103.619 100.444H111.4V102H86.5V39.75Z" fill="#441D06"/>
<path d="M90.375 53.7563H93.4875V56.8688H90.375V53.7563Z" fill="#441D06"/>
<path d="M96.6001 53.7563H99.7126V56.8688H96.6001V53.7563Z" fill="#441D06"/>
<path d="M102.825 53.7563H105.938V56.8688H102.825V53.7563Z" fill="#441D06"/>
<path d="M90.375 59.9812H93.4875V63.0937H90.375V59.9812Z" fill="#441D06"/>
<path d="M96.6001 59.9812H99.7126V63.0937H96.6001V59.9812Z" fill="#441D06"/>
<path d="M102.825 59.9812H105.938V63.0937H102.825V59.9812Z" fill="#441D06"/>
<path d="M90.375 66.2063H93.4875V69.3188H90.375V66.2063Z" fill="#441D06"/>
<path d="M96.6001 66.2063H99.7126V69.3188H96.6001V66.2063Z" fill="#441D06"/>
<path d="M102.825 66.2063H105.938V69.3188H102.825V66.2063Z" fill="#441D06"/>
<path d="M90.375 72.4312H93.4875V75.5437H90.375V72.4312Z" fill="#441D06"/>
<path d="M96.6001 72.4312H99.7126V75.5437H96.6001V72.4312Z" fill="#441D06"/>
<path d="M90.375 78.6562H93.4875V81.7687H90.375V78.6562Z" fill="#441D06"/>
<path d="M96.6001 78.6562H99.7126V81.7687H96.6001V78.6562Z" fill="#441D06"/>
<path d="M90.375 84.8813H93.4875V87.9939H90.375V84.8813Z" fill="#441D06"/>
<path d="M96.6001 84.8813H99.7126V87.9939H96.6001V84.8813Z" fill="#441D06"/>
<path d="M90.375 91.1062H93.4875V94.2187H90.375V91.1062Z" fill="#441D06"/>
<path d="M96.6001 91.1062H99.7126V94.2187H96.6001V91.1062Z" fill="#441D06"/>
<path fill-rule="evenodd" clip-rule="evenodd" d="M104.112 73L104 100H116.657L116.612 73H104.112ZM103.438 70.875C103.025 70.875 102.629 71.039 102.337 71.3308C102.045 71.6227 101.881 72.0185 101.881 72.4313V100.444C101.881 100.856 102.045 101.252 102.337 101.544C102.629 101.836 103.025 102 103.438 102H117.444C117.857 102 118.252 101.836 118.544 101.544C118.836 101.252 119 100.856 119 100.444V72.4313C119 72.0185 118.836 71.6227 118.544 71.3308C118.252 71.039 117.857 70.875 117.444 70.875H103.438Z" fill="#441D06"/>
<path fill-rule="evenodd" clip-rule="evenodd" d="M112.163 80.2126H107.494V77.1001H112.163V80.2126Z" fill="#441D06"/>
<path fill-rule="evenodd" clip-rule="evenodd" d="M112.163 86.4374H107.494V83.325H112.163V86.4374Z" fill="#441D06"/>
<path fill-rule="evenodd" clip-rule="evenodd" d="M112.163 92.6626H107.494V89.55H112.163V92.6626Z" fill="#441D06"/>
<path fill-rule="evenodd" clip-rule="evenodd" d="M112.163 98.8874H107.494V95.7749H112.163V98.8874Z" fill="#441D06"/>
<path fill-rule="evenodd" clip-rule="evenodd" d="M82 53V67H80V53H82Z" fill="#441D06"/>
</svg>
