<svg width="223" height="152" viewBox="0 0 223 152" fill="none" xmlns="http://www.w3.org/2000/svg">
<path d="M63.8528 144.391C47.1743 136.307 34.0246 122.407 26.8777 105.306C19.7307 88.2055 19.0791 69.0825 25.0455 51.5348C31.0118 33.9872 43.1848 19.2246 59.2744 10.0244C75.3639 0.82423 94.2609 -2.17937 112.41 1.5787C130.559 5.33677 146.71 15.5975 157.823 30.4304C168.936 45.2633 174.246 63.6459 172.753 82.12C171.261 100.594 163.069 117.886 149.719 130.742C136.369 143.599 118.781 151.134 100.263 151.93L100.16 149.512C118.087 148.742 135.115 141.447 148.04 129C160.965 116.552 168.896 99.8109 170.341 81.9251C171.786 64.0393 166.646 46.2419 155.886 31.8812C145.127 17.5206 129.491 7.5866 111.919 3.94818C94.3481 0.309766 76.0528 3.21773 60.4755 12.125C44.8982 21.0323 33.1128 35.3248 27.3364 52.3138C21.56 69.3027 22.1909 87.8169 29.1103 104.373C36.0297 120.93 48.7607 134.387 64.9081 142.213L63.8528 144.391Z" fill="#441D06"/>
<line x1="8" y1="150.75" x2="101" y2="150.75" stroke="#441D06" stroke-width="2.5"/>
<line x1="129" y1="150.75" x2="199" y2="150.75" stroke="#441D06" stroke-width="2.5"/>
<path d="M116.18 45.2656H80.8203C78.7034 45.268 76.6739 46.1099 75.1771 47.6068C73.6802 49.1036 72.8383 51.1331 72.8359 53.25V96.5938C72.8369 97.501 73.1978 98.3708 73.8393 99.0123C74.4808 99.6538 75.3506 100.015 76.2578 100.016H83.1016C84.0088 100.015 84.8786 99.6538 85.5201 99.0123C86.1616 98.3708 86.5225 97.501 86.5234 96.5938V90.8906H110.477V96.5938C110.478 97.501 110.838 98.3708 111.48 99.0123C112.121 99.6538 112.991 100.015 113.898 100.016H120.742C121.649 100.015 122.519 99.6538 123.161 99.0123C123.802 98.3708 124.163 97.501 124.164 96.5938V53.25C124.162 51.1331 123.32 49.1036 121.823 47.6068C120.326 46.1099 118.297 45.268 116.18 45.2656ZM75.1172 88.6094V70.3594H121.883V88.6094H75.1172ZM75.1172 56.6719H121.883V68.0781H75.1172V56.6719ZM80.8203 47.5469H116.18C117.692 47.5485 119.141 48.1499 120.211 49.2191C121.28 50.2883 121.881 51.7379 121.883 53.25V54.3906H75.1172V53.25C75.1188 51.7379 75.7202 50.2883 76.7894 49.2191C77.8586 48.1499 79.3083 47.5485 80.8203 47.5469ZM84.2422 96.5938C84.2419 96.8962 84.1216 97.1861 83.9078 97.4C83.6939 97.6138 83.404 97.7341 83.1016 97.7344H76.2578C75.9554 97.7341 75.6654 97.6138 75.4516 97.4C75.2378 97.1861 75.1175 96.8962 75.1172 96.5938V90.8906H84.2422V96.5938ZM120.742 97.7344H113.898C113.596 97.7341 113.306 97.6138 113.092 97.4C112.878 97.1861 112.758 96.8962 112.758 96.5938V90.8906H121.883V96.5938C121.883 96.8962 121.762 97.1861 121.548 97.4C121.335 97.6138 121.045 97.7341 120.742 97.7344ZM88.2344 79.4844C88.2344 79.9356 88.1006 80.3766 87.8499 80.7518C87.5992 81.1269 87.243 81.4193 86.8261 81.592C86.4093 81.7646 85.9506 81.8098 85.5081 81.7218C85.0656 81.6338 84.6591 81.4165 84.34 81.0975C84.021 80.7784 83.8037 80.3719 83.7157 79.9294C83.6277 79.4869 83.6729 79.0282 83.8455 78.6114C84.0182 78.1945 84.3106 77.8382 84.6857 77.5876C85.0609 77.3369 85.5019 77.2031 85.9531 77.2031C86.5579 77.2039 87.1377 77.4445 87.5654 77.8721C87.993 78.2998 88.2336 78.8796 88.2344 79.4844ZM113.328 79.4844C113.328 79.9356 113.194 80.3766 112.944 80.7518C112.693 81.1269 112.337 81.4193 111.92 81.592C111.503 81.7646 111.044 81.8098 110.602 81.7218C110.159 81.6338 109.753 81.4165 109.434 81.0975C109.115 80.7784 108.897 80.3719 108.809 79.9294C108.721 79.4869 108.767 79.0282 108.939 78.6114C109.112 78.1945 109.404 77.8382 109.779 77.5876C110.155 77.3369 110.596 77.2031 111.047 77.2031C111.652 77.2039 112.231 77.4445 112.659 77.8721C113.087 78.2998 113.327 78.8796 113.328 79.4844Z" fill="#441D06"/>
</svg>
